<svg id="Layer_1" data-name="Layer 1" xmlns="http://www.w3.org/2000/svg" viewBox="0 0 328.92 205.9"><defs><style>.cls-1{fill:#149fda;stroke:#fff;stroke-miterlimit:10;stroke-width:5px;}.cls-2{fill:#fff;}</style></defs><title>Logo</title><path id="Cloud" class="cls-1" d="M85.45,68.44S131.43-7.29,200.4,17,268,99.54,268,99.54s62.2-2.33,62.2,54.28-51.39,59.31-51.39,59.31H80s-56.8-2.33-71.67-59.31S62.47,68.44,85.45,68.44Z" transform="translate(-3.79 -9.73)"/><path class="cls-2" d="M87,126.15h8.48l4.87,23,5-23H114l-9.27,32h-8.6l-5-23.29L86,158.13H77.36l-9-32h9l5,22.94Z" transform="translate(-3.79 -9.73)"/><path class="cls-2" d="M131.27,138.68a13.2,13.2,0,0,0,3.34-.73,2.51,2.51,0,0,0,1.8-2.38,2.81,2.81,0,0,0-1.38-2.71,8.75,8.75,0,0,0-4.06-.75q-3,0-4.25,1.47a6,6,0,0,0-1.19,2.93h-8.07a12.24,12.24,0,0,1,2.36-6.89q3.33-4.22,11.43-4.22a20.4,20.4,0,0,1,9.37,2.08q4.09,2.08,4.09,7.86V150q0,1.53.06,3.7a4.64,4.64,0,0,0,.5,2.23,3,3,0,0,0,1.23,1v1.23h-9.09a9.25,9.25,0,0,1-.53-1.82q-.15-.85-.24-1.94a17.24,17.24,0,0,1-4,3.2,12.13,12.13,0,0,1-6.14,1.55,10.59,10.59,0,0,1-7.21-2.48,8.81,8.81,0,0,1-2.85-7q0-5.9,4.58-8.54a20.45,20.45,0,0,1,7.39-2.05Zm5.11,3.9a9.2,9.2,0,0,1-1.62.81,13.63,13.63,0,0,1-2.25.57l-1.9.35a12.52,12.52,0,0,0-3.84,1.14,3.82,3.82,0,0,0-2,3.55A3.71,3.71,0,0,0,126,152.1a4.58,4.58,0,0,0,2.93,1,8.73,8.73,0,0,0,5-1.58q2.31-1.58,2.4-5.78Z" transform="translate(-3.79 -9.73)"/><path class="cls-2" d="M160.62,122.34h-8.48v-7.71h8.48Zm-8.48,3.81h8.48v32h-8.48Z" transform="translate(-3.79 -9.73)"/><path class="cls-2" d="M165.43,132.4v-6h4.46v-8.92h8.27v8.92h5.19v6h-5.19v16.9a3.81,3.81,0,0,0,.5,2.45q.5.48,3.05.48h.81l.84,0v6.25l-4,.15q-5.93.2-8.1-2.05a6.11,6.11,0,0,1-1.41-4.43V132.4Z" transform="translate(-3.79 -9.73)"/><path class="cls-2" d="M197.26,158.13h-8.36V114.88h8.36Z" transform="translate(-3.79 -9.73)"/><path class="cls-2" d="M226.25,126.8a13,13,0,0,1,5.53,4.73,15.73,15.73,0,0,1,2.55,6.61,40.7,40.7,0,0,1,.28,6.35H211.31q.19,4.81,3.34,6.75a8.49,8.49,0,0,0,4.61,1.2,6.49,6.49,0,0,0,6.36-3.67h8.54a10.44,10.44,0,0,1-3.1,5.78q-4.3,4.66-12,4.66a17.43,17.43,0,0,1-11.26-3.93q-4.88-3.93-4.88-12.8,0-8.31,4.4-12.74a15.42,15.42,0,0,1,11.43-4.43A18.2,18.2,0,0,1,226.25,126.8ZM213.74,134a8.69,8.69,0,0,0-2.23,5h14.4a7,7,0,0,0-2.23-5.05,7.33,7.33,0,0,0-5-1.72A6.63,6.63,0,0,0,213.74,134Z" transform="translate(-3.79 -9.73)"/><path class="cls-2" d="M245.31,147.92a5.56,5.56,0,0,0,1.15,3.17q1.56,1.67,5.78,1.67a8.84,8.84,0,0,0,3.93-.73,2.35,2.35,0,0,0,1.46-2.2,2.37,2.37,0,0,0-1.17-2.14q-1.18-.73-8.75-2.52-5.45-1.35-7.68-3.37A7.31,7.31,0,0,1,237.8,136a10,10,0,0,1,3.48-7.61q3.48-3.18,9.8-3.18a18,18,0,0,1,9.77,2.39q3.78,2.39,4.34,8.26h-8.36a4.94,4.94,0,0,0-.91-2.55q-1.38-1.7-4.71-1.7a6.77,6.77,0,0,0-3.9.85,2.45,2.45,0,0,0-1.16,2,2.18,2.18,0,0,0,1.24,2.08q1.23.68,8.73,2.32a16,16,0,0,1,7.49,3.55,8.06,8.06,0,0,1,2.46,6,9.71,9.71,0,0,1-3.54,7.76q-3.54,3-10.95,3T240.43,156a10.34,10.34,0,0,1-3.6-8.11Z" transform="translate(-3.79 -9.73)"/><path class="cls-2" d="M278.72,147.92a5.56,5.56,0,0,0,1.15,3.17q1.56,1.67,5.78,1.67a8.84,8.84,0,0,0,3.93-.73,2.35,2.35,0,0,0,1.46-2.2,2.37,2.37,0,0,0-1.17-2.14q-1.18-.73-8.75-2.52-5.45-1.35-7.68-3.37a7.31,7.31,0,0,1-2.23-5.75,10,10,0,0,1,3.48-7.61q3.48-3.18,9.8-3.18a18,18,0,0,1,9.77,2.39q3.78,2.39,4.34,8.26h-8.36a4.94,4.94,0,0,0-.91-2.55q-1.38-1.7-4.71-1.7a6.77,6.77,0,0,0-3.9.85,2.45,2.45,0,0,0-1.16,2,2.18,2.18,0,0,0,1.24,2.08q1.23.68,8.73,2.32a16,16,0,0,1,7.49,3.55,8.06,8.06,0,0,1,2.46,6,9.71,9.71,0,0,1-3.54,7.76q-3.54,3-10.95,3T273.84,156a10.34,10.34,0,0,1-3.6-8.11Z" transform="translate(-3.79 -9.73)"/><rect id="Line" class="cls-2" x="71.39" y="152.56" width="251.43" height="9.21"/><g id="Arm"><polygon class="cls-2" points="158.99 157.16 116.87 200.94 142.79 200.94 172.84 157.16 158.99 157.16"/><path class="cls-2" d="M161.49,171.26H216l-7.85,3.8h-9S182.37,185.55,161.49,171.26Z" transform="translate(-3.79 -9.73)"/></g></svg>