<svg xmlns="http://www.w3.org/2000/svg" xmlns:xlink="http://www.w3.org/1999/xlink" version="1.1" x="0px" y="0px" viewBox="0 0 100 125" enable-background="new 0 0 100 100" xml:space="preserve"><path d="M70.838,62.857c2.39-3.863,3.648-8.292,3.648-12.858c0-13.502-10.984-24.486-24.486-24.486  c-13.502,0-24.486,10.984-24.486,24.486c0,13.502,10.984,24.487,24.486,24.487c4.566,0,8.995-1.259,12.858-3.648l9.607,3.556  c0.17,0.062,0.346,0.093,0.521,0.093c0.391,0,0.774-0.153,1.061-0.439c0.414-0.414,0.55-1.031,0.347-1.581L70.838,62.857z   M63.199,67.765c-0.448-0.166-0.949-0.107-1.349,0.157c-3.521,2.332-7.618,3.564-11.85,3.564c-11.848,0-21.486-9.639-21.486-21.487  c0-11.848,9.639-21.486,21.486-21.486c11.847,0,21.486,9.639,21.486,21.486c0,4.232-1.232,8.33-3.564,11.85  c-0.265,0.398-0.323,0.899-0.157,1.349l2.683,7.249L63.199,67.765z M39.891,47.473c-1.396,0-2.527,1.131-2.527,2.527  c0,1.396,1.132,2.527,2.527,2.527c1.395,0,2.527-1.131,2.527-2.527C42.418,48.604,41.285,47.473,39.891,47.473z M49.999,47.473  c-1.396,0-2.526,1.131-2.526,2.527c0,1.396,1.131,2.527,2.526,2.527c1.396,0,2.527-1.131,2.527-2.527  C52.526,48.604,51.396,47.473,49.999,47.473z M60.108,47.473c-1.395,0-2.526,1.131-2.526,2.527c0,1.396,1.132,2.527,2.526,2.527  c1.396,0,2.527-1.131,2.527-2.527C62.636,48.604,61.505,47.473,60.108,47.473z"/><text x="0" y="115" fill="#000000" font-size="5px" font-weight="bold" font-family="'Helvetica Neue', Helvetica, Arial-Unicode, Arial, Sans-serif">Created by Sergey Demushkin</text><text x="0" y="120" fill="#000000" font-size="5px" font-weight="bold" font-family="'Helvetica Neue', Helvetica, Arial-Unicode, Arial, Sans-serif">from the Noun Project</text></svg>