<svg xmlns="http://www.w3.org/2000/svg" xmlns:xlink="http://www.w3.org/1999/xlink" version="1.1" x="0px" y="0px" viewBox="0 0 100 125" enable-background="new 0 0 100 100" xml:space="preserve"><g display="none"><rect x="-420.877" y="-397.172" display="inline" fill="#000000" width="1370.931" height="1263.231"/></g><g display="none" opacity="0.31"><g display="inline"><path d="M68.883,30.368c0-10.412-8.471-18.883-18.883-18.883s-18.883,8.471-18.883,18.883S39.588,49.251,50,49.251    S68.883,40.78,68.883,30.368z M33.117,30.368c0-9.309,7.574-16.883,16.883-16.883s16.883,7.574,16.883,16.883    c0,4.533-1.805,8.647-4.724,11.683c-1.677-3.555-5.307-5.928-9.316-5.928h-5.74c-3.99,0-7.609,2.36-9.289,5.898    C34.912,38.987,33.117,34.887,33.117,30.368z M50,47.251c-4.028,0-7.728-1.422-10.633-3.785c1.212-3.176,4.304-5.343,7.735-5.343    h5.74c3.447,0,6.548,2.177,7.758,5.367C57.7,45.837,54.014,47.251,50,47.251z"/><path d="M50,35.89c4.223,0,7.659-3.436,7.659-7.66c0-4.223-3.436-7.659-7.659-7.659s-7.659,3.436-7.659,7.659    C42.341,32.454,45.777,35.89,50,35.89z M50,22.572c3.121,0,5.659,2.539,5.659,5.659S53.121,33.89,50,33.89    s-5.659-2.539-5.659-5.66S46.879,22.572,50,22.572z"/><path d="M5.038,69.632c0,10.412,8.471,18.883,18.883,18.883s18.883-8.471,18.883-18.883s-8.471-18.883-18.883-18.883    S5.038,59.22,5.038,69.632z M23.921,86.515c-4.028,0-7.728-1.422-10.633-3.785c1.212-3.176,4.304-5.343,7.735-5.343h5.74    c3.447,0,6.548,2.177,7.758,5.367C31.621,85.101,27.935,86.515,23.921,86.515z M40.804,69.632c0,4.533-1.805,8.647-4.724,11.683    c-1.677-3.555-5.307-5.928-9.316-5.928h-5.74c-3.99,0-7.609,2.36-9.289,5.898c-2.901-3.033-4.696-7.134-4.696-11.652    c0-9.309,7.574-16.883,16.883-16.883S40.804,60.323,40.804,69.632z"/><path d="M16.262,67.495c0,4.224,3.436,7.66,7.659,7.66s7.659-3.436,7.659-7.66c0-4.223-3.436-7.659-7.659-7.659    S16.262,63.272,16.262,67.495z M29.58,67.495c0,3.121-2.539,5.66-5.659,5.66s-5.659-2.539-5.659-5.66s2.539-5.659,5.659-5.659    S29.58,64.374,29.58,67.495z"/><path d="M76.079,50.749c-10.412,0-18.883,8.471-18.883,18.883s8.471,18.883,18.883,18.883s18.883-8.471,18.883-18.883    S86.491,50.749,76.079,50.749z M76.079,86.515c-4.028,0-7.728-1.422-10.633-3.785c1.212-3.176,4.304-5.343,7.735-5.343h5.74    c3.447,0,6.548,2.177,7.758,5.367C83.779,85.101,80.093,86.515,76.079,86.515z M88.238,81.315    c-1.677-3.555-5.307-5.928-9.316-5.928h-5.74c-3.99,0-7.609,2.36-9.289,5.898c-2.901-3.033-4.696-7.134-4.696-11.652    c0-9.309,7.574-16.883,16.883-16.883s16.883,7.574,16.883,16.883C92.962,74.166,91.156,78.279,88.238,81.315z"/><path d="M76.079,59.836c-4.223,0-7.659,3.436-7.659,7.659c0,4.224,3.436,7.66,7.659,7.66s7.659-3.436,7.659-7.66    C83.738,63.272,80.302,59.836,76.079,59.836z M76.079,73.155c-3.121,0-5.659-2.539-5.659-5.66s2.539-5.659,5.659-5.659    s5.659,2.539,5.659,5.659S79.2,73.155,76.079,73.155z"/></g></g><g><path d="M24.589,40.949c5.839,0,10.59-4.751,10.59-10.59s-4.751-10.59-10.59-10.59s-10.59,4.75-10.59,10.59   S18.75,40.949,24.589,40.949z"/><path d="M7.475,60.962h33.871c-2.827-2.085-4.845-5.195-5.504-8.78c-0.23-1.251-1.025-2.344-2.217-2.788   c-1.327-0.495-2.761-0.768-4.259-0.768h-9.555C13.01,48.625,7.475,54.16,7.475,60.962z"/><path d="M75.411,19.768c-5.839,0-10.59,4.75-10.59,10.59s4.751,10.59,10.59,10.59s10.59-4.751,10.59-10.59   S81.25,19.768,75.411,19.768z"/><path d="M80.188,48.625h-9.555c-1.809,0-3.529,0.392-5.078,1.095c-1.099,0.499-1.836,1.533-2.076,2.716   c-0.688,3.384-2.592,6.327-5.237,8.36c0.029,0.086,0.027,0.08,0.055,0.165h34.228C92.525,54.16,86.99,48.625,80.188,48.625z"/><circle cx="49.683" cy="49.628" r="11.09"/><path d="M54.46,67.395h-9.555c-7.06,0-12.836,5.776-12.836,12.836h35.228C67.297,73.172,61.52,67.395,54.46,67.395z"/></g><text x="0" y="115" fill="#000000" font-size="5px" font-weight="bold" font-family="'Helvetica Neue', Helvetica, Arial-Unicode, Arial, Sans-serif">Created by Oksana Latysheva</text><text x="0" y="120" fill="#000000" font-size="5px" font-weight="bold" font-family="'Helvetica Neue', Helvetica, Arial-Unicode, Arial, Sans-serif">from the Noun Project</text></svg>