<svg xmlns="http://www.w3.org/2000/svg" xmlns:xlink="http://www.w3.org/1999/xlink" version="1.1" x="0px" y="0px" viewBox="0 0 98 122.5" style="enable-background:new 0 0 98 98;" xml:space="preserve"><path d="M77.4,85.8h-3.9V70.3c0-9.2-5.1-17.2-12.6-21.3c7.5-4.1,12.6-12.1,12.6-21.3V12.2h3.9c1.7,0,3-1.3,3-3s-1.3-3-3-3H20.6  c-1.7,0-3,1.3-3,3s1.3,3,3,3h4.3v15.5c0,9.2,5.1,17.2,12.6,21.3C30,53.1,24.9,61.1,24.9,70.3v15.5h-4.3c-1.7,0-3,1.3-3,3s1.3,3,3,3  h56.8c1.7,0,3-1.3,3-3S79.1,85.8,77.4,85.8z M67.5,12.2v11.4H30.9V12.2H67.5z M30.9,70.3c0-10.1,8.2-18.3,18.3-18.3  s18.3,8.2,18.3,18.3v15.5h-1.4L51.2,69.1c-0.6-0.6-1.4-1-2.2-1s-1.7,0.4-2.2,1L31.9,85.8h-1V70.3z"/><text x="0" y="113" fill="#000000" font-size="5px" font-weight="bold" font-family="'Helvetica Neue', Helvetica, Arial-Unicode, Arial, Sans-serif">Created by James</text><text x="0" y="118" fill="#000000" font-size="5px" font-weight="bold" font-family="'Helvetica Neue', Helvetica, Arial-Unicode, Arial, Sans-serif">from the Noun Project</text></svg>