<svg xmlns="http://www.w3.org/2000/svg" xmlns:xlink="http://www.w3.org/1999/xlink" version="1.1" x="0px" y="0px" viewBox="0 0 500 625" style="enable-background:new 0 0 500 500;" xml:space="preserve"><title>icon-wine</title><path d="M262.5,336.8c56.2-6.2,100-54,100-111.8c0.1-42.2-11.7-83.4-34.1-119.2l-3.7-5.9H175.3l-3.7,5.9  c-22.4,35.8-34.2,77-34.1,119.1c0,57.8,43.8,105.6,100,111.8V475h-75v25h175v-25h-75V336.8z M189.3,125h121.5  c17.6,30.4,26.8,64.8,26.8,100c0,1.5,0,2.9-0.1,4.4H162.6c-0.1-1.5-0.1-2.9-0.1-4.4C162.4,189.8,171.7,155.4,189.3,125z   M167.6,254.4h164.8c-12.1,33.8-44.5,58.1-82.4,58.1C212.1,312.5,179.7,288.2,167.6,254.4z"/><text x="0" y="515" fill="#000000" font-size="5px" font-weight="bold" font-family="'Helvetica Neue', Helvetica, Arial-Unicode, Arial, Sans-serif">Created by Alex Furgiuele</text><text x="0" y="520" fill="#000000" font-size="5px" font-weight="bold" font-family="'Helvetica Neue', Helvetica, Arial-Unicode, Arial, Sans-serif">from the Noun Project</text></svg>